<svg xmlns="http://www.w3.org/2000/svg" viewBox="0 0 750 500"><g id="freepik--background-complete--inject-118"><path d="M609,290.75a15.75,15.75,0,0,1,3.82-1.66l.78-3.77,6.39-.12.91,3.75a16,16,0,0,1,3.88,1.52l3.22-2.11,4.59,4.43-2,3.3a15.37,15.37,0,0,1,1.66,3.82l3.78.78.11,6.39-3.75.91a15.12,15.12,0,0,1-1.52,3.88l2.12,3.22-4.44,4.59-3.3-2a15.65,15.65,0,0,1-3.81,1.65l-.79,3.78-6.38.11-.92-3.74a15.45,15.45,0,0,1-3.87-1.53l-3.23,2.12-4.59-4.44,2-3.29a15.92,15.92,0,0,1-1.66-3.82l-3.77-.79-.12-6.38,3.75-.92a15.81,15.81,0,0,1,1.52-3.87l-2.11-3.23,4.43-4.59,3.3,2Zm3.4,8.5a6.85,6.85,0,1,0,9.69-.17A6.86,6.86,0,0,0,612.43,299.25Z" style="fill:#f5f5f5"></path><path d="M690.87,293.65l-12.29.5-1.32,3.44a7.44,7.44,0,0,0-.61,2.83,2.33,2.33,0,0,0,1.27,2.11,10,10,0,0,0,3.43.47l0,.95-11.57.47,0-.95a5.2,5.2,0,0,0,3-1.68,20.48,20.48,0,0,0,2.76-5.36l11.33-28.27.49,0,13.69,28q2,4,3.16,5a4.06,4.06,0,0,0,2.5.83l0,.94-16.83.68,0-.95.69,0a5.26,5.26,0,0,0,2.83-.68,1.36,1.36,0,0,0,.51-1.2,2.91,2.91,0,0,0-.19-.94c0-.15-.32-.79-.85-1.89Zm-1-1.86L684.26,280l-4.86,12.2Z" style="fill:#e0e0e0"></path><path d="M612,72.83c-.08.07-1.28-1.12-3.61-3.11-1.16-1-2.6-2.18-4.35-3.46a49.21,49.21,0,0,0-6.2-3.88,28.38,28.38,0,0,0-3.87-1.68,12.65,12.65,0,0,0-4.37-.78,5.09,5.09,0,0,0-2.13.5A3.31,3.31,0,0,0,586,62a5.35,5.35,0,0,0-.43,2.29,10.93,10.93,0,0,0,.32,2.51,24.75,24.75,0,0,0,1.88,5.07,42.74,42.74,0,0,0,2.86,5,66,66,0,0,0,7.61,9.36A65.54,65.54,0,0,0,607.36,94a43.16,43.16,0,0,0,4.86,3,24,24,0,0,0,5,2,11.09,11.09,0,0,0,2.51.39,5.28,5.28,0,0,0,2.3-.36,3.25,3.25,0,0,0,1.58-1.41,5,5,0,0,0,.57-2.1,12.79,12.79,0,0,0-.64-4.4A29.37,29.37,0,0,0,622,87.29a50.37,50.37,0,0,0-3.7-6.32c-1.23-1.78-2.37-3.26-3.33-4.45-1.91-2.38-3.07-3.62-3-3.69s.36.24.95.79,1.42,1.41,2.44,2.56,2.24,2.59,3.54,4.36a46.17,46.17,0,0,1,3.94,6.33,28.53,28.53,0,0,1,1.7,4,13.84,13.84,0,0,1,.77,4.77,6.25,6.25,0,0,1-.68,2.61,4.41,4.41,0,0,1-2.12,1.92,6.47,6.47,0,0,1-2.8.5,12.45,12.45,0,0,1-2.79-.41,25.43,25.43,0,0,1-5.3-2.1,43.84,43.84,0,0,1-5-3.07,68.27,68.27,0,0,1-17.08-17.6,44.49,44.49,0,0,1-2.92-5.12,26,26,0,0,1-1.94-5.35,13.21,13.21,0,0,1-.32-2.8,6.47,6.47,0,0,1,.58-2.79,4.42,4.42,0,0,1,2-2.06,6.06,6.06,0,0,1,2.62-.6,13.66,13.66,0,0,1,4.75.92,28,28,0,0,1,4,1.81,47.74,47.74,0,0,1,6.21,4.13c1.72,1.35,3.13,2.61,4.25,3.67s1.93,1.93,2.48,2.53S612,72.79,612,72.83Z" style="fill:#e0e0e0"></path><path d="M596.46,76.7c.11,0-.36,1.61-1,4.5-.31,1.44-.65,3.22-.92,5.29a45.27,45.27,0,0,0-.39,7.07,25.1,25.1,0,0,0,.42,4.06,11.88,11.88,0,0,0,1.45,4,4.91,4.91,0,0,0,1.44,1.53,3.41,3.41,0,0,0,2,.54,5.19,5.19,0,0,0,2.17-.61,11,11,0,0,0,2-1.37,22.91,22.91,0,0,0,3.53-3.85,40.56,40.56,0,0,0,3-4.66,61.74,61.74,0,0,0,4.54-10.75,60.88,60.88,0,0,0,2.49-11.4,39.77,39.77,0,0,0,.27-5.52,22.4,22.4,0,0,0-.66-5.18,10.64,10.64,0,0,0-.87-2.29,5.36,5.36,0,0,0-1.42-1.75,3.39,3.39,0,0,0-1.94-.71,5.14,5.14,0,0,0-2.07.42A12.11,12.11,0,0,0,607,58.53a25.28,25.28,0,0,0-2.68,3.07,43.81,43.81,0,0,0-3.76,6c-1,1.85-1.72,3.5-2.3,4.86-1.17,2.71-1.69,4.27-1.8,4.24a4.6,4.6,0,0,1,.25-1.18c.21-.75.54-1.86,1.06-3.26a52,52,0,0,1,2.12-5A42.38,42.38,0,0,1,603.55,61a26.63,26.63,0,0,1,2.72-3.25,12.87,12.87,0,0,1,3.8-2.74,6,6,0,0,1,2.55-.55,4.48,4.48,0,0,1,2.61.92A6.44,6.44,0,0,1,617,57.52a11.85,11.85,0,0,1,1,2.55,23.65,23.65,0,0,1,.75,5.47,42.17,42.17,0,0,1-.25,5.7,63.12,63.12,0,0,1-7.19,22.64,40.39,40.39,0,0,1-3.08,4.79,23.39,23.39,0,0,1-3.77,4,11.59,11.59,0,0,1-2.29,1.5,6.27,6.27,0,0,1-2.67.7,4.51,4.51,0,0,1-2.66-.75,5.94,5.94,0,0,1-1.76-1.92,12.7,12.7,0,0,1-1.52-4.43,25.13,25.13,0,0,1-.35-4.23,43.74,43.74,0,0,1,.59-7.2c.35-2.09.77-3.87,1.16-5.31s.75-2.53,1-3.27A4.16,4.16,0,0,1,596.46,76.7Z" style="fill:#e0e0e0"></path><path d="M601.77,69.22c0,.11-1.56.54-4.35,1.53-1.39.5-3.07,1.15-5,2a44.85,44.85,0,0,0-6.22,3.38,25.47,25.47,0,0,0-3.23,2.5A11.79,11.79,0,0,0,580.32,82a5,5,0,0,0-.55,2,3.39,3.39,0,0,0,.6,2A5.09,5.09,0,0,0,582,87.53a10.05,10.05,0,0,0,2.23,1,22.85,22.85,0,0,0,5.13,1,42.19,42.19,0,0,0,5.52.06,63.42,63.42,0,0,0,22.53-5.68,40.11,40.11,0,0,0,4.84-2.67,22.37,22.37,0,0,0,4.06-3.29A10.79,10.79,0,0,0,627.83,76a5.33,5.33,0,0,0,.74-2.13,3.43,3.43,0,0,0-.42-2,4.83,4.83,0,0,0-1.45-1.54,12.06,12.06,0,0,0-3.94-1.69,26.76,26.76,0,0,0-4-.67,44.16,44.16,0,0,0-7.08,0c-2.09.14-3.88.37-5.34.59-2.93.45-4.53.82-4.55.71a4.38,4.38,0,0,1,1.12-.41c.76-.22,1.88-.51,3.34-.81s3.25-.61,5.37-.84a44.18,44.18,0,0,1,7.22-.16,25.68,25.68,0,0,1,4.19.61,12.9,12.9,0,0,1,4.34,1.79,5.9,5.9,0,0,1,1.8,1.88,4.49,4.49,0,0,1,.6,2.7,6.45,6.45,0,0,1-.87,2.62,11.65,11.65,0,0,1-1.63,2.19A23.82,23.82,0,0,1,623,82.31a41.43,41.43,0,0,1-5,2.79,61,61,0,0,1-11.24,4A61.4,61.4,0,0,1,595,90.9a43.17,43.17,0,0,1-5.7-.1,24.34,24.34,0,0,1-5.42-1.08,11.92,11.92,0,0,1-2.48-1.16,6.36,6.36,0,0,1-2-1.9,4.55,4.55,0,0,1-.76-2.66,5.94,5.94,0,0,1,.7-2.51,12.87,12.87,0,0,1,3-3.62,26.3,26.3,0,0,1,3.41-2.53,43.64,43.64,0,0,1,6.44-3.28c2-.8,3.69-1.38,5.12-1.81s2.55-.69,3.32-.86A4.59,4.59,0,0,1,601.77,69.22Z" style="fill:#e0e0e0"></path><path d="M609.92,78.58a4.34,4.34,0,1,1-5.27-3.15A4.34,4.34,0,0,1,609.92,78.58Z" style="fill:#e0e0e0"></path><polygon points="634.47 136.12 708.52 163.36 710.59 164.43 692.29 212.49 652.92 198.19 614.78 183.64 634.47 136.12" style="fill:#e0e0e0"></polygon><polygon points="691.69 209.72 690.6 210.69 617.08 183.18 617.5 181.56 647.62 188.46 688.03 202.01 691.69 209.72" style="fill:#e0e0e0"></polygon><path d="M709,163.52s-6.86-13.1-36.75-14.58c0,0-14.77-15.73-36.21-12.93L617.5,181.56s25.4,5.38,32,13.45l9.64,3.48s24.41.36,32.52,11.23Z" style="fill:#fafafa"></path><path d="M709,163.52l-.32.83-.92,2.42L704.3,176c-3,8-7.35,19.56-12.66,33.67h.1a18.06,18.06,0,0,0-2.79-2.88,25,25,0,0,0-3.44-2.32,39.59,39.59,0,0,0-8-3.26,69.14,69.14,0,0,0-8.88-1.93,80.64,80.64,0,0,0-9.47-.88h0l-9.65-3.49,0,0a15.45,15.45,0,0,0-3.1-2.77,33.16,33.16,0,0,0-3.62-2.19,67.17,67.17,0,0,0-7.93-3.47c-2.75-1-5.58-1.92-8.46-2.76s-5.81-1.59-8.79-2.25l-.16,0,.05.1c6.57-16.14,12.84-31.53,18.56-45.55l-.06,0a42.6,42.6,0,0,1,5.5-.33c.45,0,.9,0,1.35,0s.9,0,1.34.08l1.34.12,1.31.18a42.65,42.65,0,0,1,9.89,2.71,48.92,48.92,0,0,1,8.5,4.5,44.33,44.33,0,0,1,6.94,5.6h0a82.1,82.1,0,0,1,16.81,2.46A46.78,46.78,0,0,1,701,156.26a27.84,27.84,0,0,1,6.36,5,15,15,0,0,1,1.33,1.64c.27.39.39.6.39.6a5.67,5.67,0,0,0-.38-.61,14.78,14.78,0,0,0-1.32-1.65,27.47,27.47,0,0,0-6.35-5,46.82,46.82,0,0,0-11.88-4.84,82.12,82.12,0,0,0-16.82-2.48l0,0a43.5,43.5,0,0,0-6.95-5.62,49.08,49.08,0,0,0-8.51-4.52,43.06,43.06,0,0,0-9.92-2.73l-1.32-.18-1.34-.12c-.44,0-.89-.06-1.34-.08s-.91,0-1.36,0a42.76,42.76,0,0,0-5.51.33h0v0c-5.72,14-12,29.41-18.57,45.54l0,.08.09,0,.16,0c3,.66,5.91,1.42,8.79,2.25s5.69,1.74,8.44,2.75a67.76,67.76,0,0,1,7.91,3.46,32.63,32.63,0,0,1,3.61,2.18,15.53,15.53,0,0,1,3.08,2.74v0h0l9.64,3.48h0a80.3,80.3,0,0,1,9.45.88,66.83,66.83,0,0,1,8.86,1.92,39.47,39.47,0,0,1,8,3.25,23.94,23.94,0,0,1,3.41,2.3,17.88,17.88,0,0,1,2.78,2.86l.06.08,0-.1L704.36,176c1.5-4,2.67-7.14,3.46-9.27.4-1.06.7-1.87.9-2.42S709,163.52,709,163.52Z" style="fill:#e0e0e0"></path><path d="M653.45,196.65s4.3-10.62,9.51-23.76,9.4-23.81,9.37-23.83-4.29,10.63-9.51,23.77S653.42,196.64,653.45,196.65Z" style="fill:#e0e0e0"></path><path d="M638.37,142.58h.32l.92,0,.66,0,.78.07c.57.05,1.21.08,1.91.18l1.11.14,1.2.21c.82.12,1.69.33,2.61.54a45.66,45.66,0,0,1,5.82,1.86,47.8,47.8,0,0,1,5.5,2.68c.8.49,1.57.94,2.26,1.42.34.23.69.45,1,.67l.9.67c.58.41,1.07.83,1.51,1.18.22.18.43.34.61.5l.49.44.69.61.18.15s.07.06.07.05l-.06-.06-.17-.16-.67-.63-.49-.45-.6-.51c-.44-.36-.92-.79-1.5-1.2l-.9-.67c-.31-.24-.65-.45-1-.69-.68-.49-1.45-.94-2.26-1.43a44.92,44.92,0,0,0-5.51-2.7,45.39,45.39,0,0,0-5.84-1.86c-.92-.2-1.79-.41-2.62-.53-.42-.07-.82-.15-1.2-.19l-1.11-.14c-.71-.1-1.36-.12-1.92-.16l-.79-.05h-.66l-.92,0h-.32Z" style="fill:#e0e0e0"></path><path d="M636.3,148.07h.33l.93,0,.68,0,.8.06c.57.06,1.23.09,2,.2l1.12.15c.4.05.8.13,1.22.2.84.13,1.73.35,2.66.56a47.33,47.33,0,0,1,5.94,1.88,48.94,48.94,0,0,1,5.61,2.71c.82.49,1.62.94,2.32,1.42.35.24.7.46,1,.69l.92.67c.6.41,1.1.84,1.55,1.19l.63.51.51.44.7.61.19.16.07,0-.06-.06-.18-.17-.69-.63-.5-.46c-.18-.16-.39-.32-.62-.51-.45-.36-.94-.79-1.54-1.21l-.91-.68c-.32-.24-.67-.46-1-.7-.7-.48-1.49-.94-2.31-1.44A43.3,43.3,0,0,0,646,149.2c-.94-.21-1.82-.42-2.67-.54-.42-.07-.83-.15-1.22-.2l-1.13-.14c-.72-.1-1.38-.13-2-.18l-.8,0h-.67l-.94,0h-.33Z" style="fill:#e0e0e0"></path><path d="M633.3,153.3h.08l.24,0,.94,0,.67,0,.8.06c.58.06,1.23.09,2,.2l1.13.14,1.21.21c.85.13,1.73.35,2.67.55a49,49,0,0,1,5.93,1.89,50,50,0,0,1,5.62,2.7c.82.5,1.61,1,2.31,1.43.36.24.71.46,1,.69l.92.67c.59.41,1.09.84,1.55,1.19l.62.5.51.45.71.61.18.16.07,0-.06-.06c0-.05-.1-.1-.17-.17l-.69-.63-.5-.46-.62-.51c-.45-.36-.95-.79-1.54-1.21l-.92-.68c-.32-.24-.67-.46-1-.7-.7-.49-1.5-.94-2.32-1.44a46.75,46.75,0,0,0-5.62-2.72,48.09,48.09,0,0,0-6-1.88c-.94-.21-1.83-.42-2.68-.54-.42-.07-.82-.15-1.22-.2l-1.13-.14c-.72-.1-1.38-.13-2-.18l-.8-.05h-.68l-.94,0h-.24S633.3,153.29,633.3,153.3Z" style="fill:#e0e0e0"></path><path d="M631.39,158.81h.33l.93,0,.68,0,.8.07c.57.05,1.22.08,1.94.19l1.13.15c.39.05.8.14,1.22.21.84.13,1.72.34,2.66.55a44.37,44.37,0,0,1,11.55,4.59c.82.49,1.61.94,2.32,1.43.35.23.7.45,1,.68l.92.67c.6.42,1.1.84,1.55,1.2l.63.5.5.44.71.62.19.15.06.05-.06-.06-.17-.16-.69-.64-.5-.45-.62-.51c-.45-.37-1-.8-1.54-1.22l-.92-.68c-.32-.23-.67-.45-1-.69-.7-.49-1.49-1-2.32-1.44a46.74,46.74,0,0,0-5.62-2.73,47.57,47.57,0,0,0-6-1.88c-.94-.2-1.83-.41-2.67-.54-.43-.07-.83-.15-1.22-.2l-1.14-.14c-.72-.1-1.37-.13-2-.17l-.8-.06h-1.94Z" style="fill:#e0e0e0"></path><path d="M628.83,164.16h.08l.24,0,.94,0,.67,0,.8.06c.58.06,1.23.09,2,.2l1.13.14,1.21.21c.85.13,1.73.35,2.67.55a49,49,0,0,1,5.93,1.89,50,50,0,0,1,5.62,2.7c.82.5,1.61.95,2.31,1.43.36.24.71.46,1,.69l.92.67c.59.41,1.09.84,1.55,1.19l.62.5.51.45.71.61.18.16.07.05-.06-.06c0-.05-.1-.1-.17-.17l-.69-.63-.5-.46-.62-.51c-.45-.36-.95-.79-1.54-1.21l-.92-.68c-.32-.24-.67-.46-1-.7-.7-.49-1.5-.94-2.32-1.44a46.75,46.75,0,0,0-5.62-2.72,48.09,48.09,0,0,0-6-1.88c-.94-.21-1.83-.42-2.68-.54-.42-.07-.82-.15-1.22-.2l-1.13-.14c-.72-.1-1.38-.13-1.95-.18l-.8,0h-.68l-.94,0h-.32Z" style="fill:#e0e0e0"></path><path d="M626.7,169.61h.08l.24,0,.94,0,.67,0,.8.07c.57,0,1.23.09,2,.19l1.12.15c.4,0,.8.14,1.22.21.84.13,1.73.34,2.66.55a49.17,49.17,0,0,1,5.94,1.89,47.34,47.34,0,0,1,5.61,2.7c.83.49,1.62.94,2.32,1.43.35.24.7.45,1,.68l.92.67c.59.42,1.09.84,1.54,1.2l.63.5.51.45.7.61.19.15s.06.06.07,0l-.06-.06-.18-.16-.69-.64-.5-.45c-.18-.16-.39-.33-.62-.51-.44-.37-.94-.8-1.53-1.22l-.92-.68c-.32-.23-.67-.45-1-.69-.7-.49-1.49-.95-2.31-1.44a43.77,43.77,0,0,0-11.59-4.61c-.93-.2-1.82-.41-2.67-.54-.42-.07-.83-.15-1.22-.2l-1.13-.14c-.72-.1-1.38-.12-1.95-.17l-.81-.05-.67,0H626.7Z" style="fill:#e0e0e0"></path><path d="M624.29,175h.32l.94,0,.67,0,.8.06c.57.06,1.23.09,2,.2l1.12.15c.4.05.8.13,1.22.2.84.13,1.73.35,2.66.56a47.33,47.33,0,0,1,5.94,1.88,48.94,48.94,0,0,1,5.61,2.71c.83.49,1.62.94,2.32,1.42l1,.69.92.67c.59.41,1.09.84,1.54,1.19l.63.51.51.44.7.61.19.16.07.05-.06-.06-.18-.17-.69-.63-.5-.46c-.18-.16-.39-.32-.62-.51-.44-.36-.94-.79-1.53-1.21l-.92-.68c-.32-.23-.67-.45-1-.69-.7-.49-1.49-1-2.31-1.45a43.3,43.3,0,0,0-11.59-4.6c-.93-.21-1.82-.42-2.67-.54-.42-.07-.83-.15-1.22-.2l-1.13-.14c-.72-.1-1.38-.13-2-.18l-.81,0h-.67l-.94,0h-.32Z" style="fill:#e0e0e0"></path><path d="M702.53,168.23l-.06-.06-.17-.16-.67-.63-.48-.45-.61-.51c-.43-.36-.91-.79-1.49-1.21l-.9-.68c-.31-.23-.65-.45-1-.69-.69-.48-1.46-.94-2.26-1.43a44.73,44.73,0,0,0-5.5-2.71,46.14,46.14,0,0,0-5.84-1.88c-.93-.2-1.8-.41-2.63-.53-.41-.07-.81-.15-1.19-.2l-1.12-.14c-.7-.1-1.35-.12-1.91-.17l-.79-.05h-1.58l.92,0,.66,0,.78.06c.57,0,1.21.09,1.91.19l1.11.15c.38.05.78.13,1.19.2.83.13,1.7.34,2.61.55a44.9,44.9,0,0,1,5.82,1.88,46.83,46.83,0,0,1,5.49,2.69c.8.49,1.58.94,2.26,1.42.35.24.69.45,1,.68l.9.67c.58.41,1.06.83,1.5,1.19.22.18.43.34.61.5l.5.44.68.61.18.15Z" style="fill:#e0e0e0"></path><path d="M700.22,173.62l-.06-.06-.18-.17-.68-.64-.5-.46-.61-.51c-.45-.37-.94-.81-1.53-1.23l-.91-.69c-.32-.23-.67-.45-1-.7-.7-.49-1.48-1-2.3-1.46a47.13,47.13,0,0,0-5.6-2.77,46.07,46.07,0,0,0-6-1.94c-.93-.21-1.82-.43-2.67-.57l-1.21-.21-1.13-.14c-.72-.11-1.38-.14-2-.19l-.8-.06-.67,0-.94,0h-.24l.24,0,.93,0,.68,0,.8.08c.57,0,1.23.09,1.94.21l1.13.15c.39.06.79.15,1.21.22.85.14,1.73.36,2.66.58a44.37,44.37,0,0,1,11.51,4.69c.82.5,1.6,1,2.3,1.45.35.24.7.46,1,.69l.92.68c.59.42,1.09.85,1.54,1.21l.62.5.5.45.71.62.18.16Z" style="fill:#e0e0e0"></path><path d="M698.76,179.47l-.06-.06-.17-.17-.69-.63-.49-.46c-.19-.17-.4-.33-.62-.52-.45-.37-.94-.8-1.53-1.23l-.91-.68c-.32-.24-.67-.46-1-.7-.7-.5-1.48-1-2.3-1.47a46.38,46.38,0,0,0-5.6-2.77,48.09,48.09,0,0,0-5.94-1.94c-.94-.21-1.83-.43-2.67-.56-.42-.07-.83-.16-1.22-.21l-1.13-.15c-.72-.11-1.38-.14-1.95-.19l-.81-.06-.67,0-.94,0h-.24l.24,0,.94.05.67,0c.25,0,.51,0,.8.07.57.06,1.23.1,1.95.21l1.12.16c.39,0,.8.14,1.22.21.84.14,1.72.36,2.66.58a48.4,48.4,0,0,1,5.92,1.94,46.79,46.79,0,0,1,5.58,2.76c.82.49,1.61,1,2.31,1.44.35.24.7.46,1,.7l.91.67c.59.42,1.09.85,1.54,1.21l.62.51.51.45.7.61.18.16A.21.21,0,0,0,698.76,179.47Z" style="fill:#e0e0e0"></path><path d="M696.31,184.77l0-.06-.18-.17-.68-.64-.5-.46-.62-.51c-.44-.37-.94-.81-1.53-1.23l-.91-.69c-.32-.23-.66-.45-1-.7-.69-.49-1.48-1-2.3-1.46a46.38,46.38,0,0,0-5.6-2.77,48.09,48.09,0,0,0-5.94-1.94c-.94-.21-1.83-.43-2.67-.56-.42-.08-.83-.16-1.22-.21l-1.13-.15c-.72-.11-1.38-.14-2-.19l-.8-.06-.68,0-.93,0h-.25l.25,0,.93,0,.67,0c.25,0,.52,0,.8.07.58,0,1.23.09,2,.21l1.12.15c.4.06.8.15,1.22.22.84.14,1.72.36,2.66.58a47.85,47.85,0,0,1,5.92,1.94,48.37,48.37,0,0,1,5.58,2.75c.82.5,1.61,1,2.31,1.45.35.24.7.46,1,.69l.91.68c.6.42,1.09.85,1.54,1.21.22.18.44.35.62.51l.51.44.7.62.18.16Z" style="fill:#e0e0e0"></path><path d="M694.45,190.4s0,0-.05-.06l-.18-.17-.68-.64-.5-.46-.61-.51c-.45-.37-.94-.81-1.53-1.23l-.92-.69c-.31-.23-.66-.45-1-.7-.7-.49-1.49-1-2.31-1.46a43.53,43.53,0,0,0-11.54-4.71c-.93-.21-1.82-.43-2.67-.57l-1.22-.21-1.13-.14c-.72-.11-1.37-.14-2-.19l-.8-.06-.68,0-.93,0h-.24l.24,0,.93,0,.68,0,.8.08c.57,0,1.22.09,1.94.21l1.13.15c.39.06.79.15,1.21.22.84.14,1.73.36,2.66.58a44.37,44.37,0,0,1,11.51,4.69c.82.5,1.6,1,2.3,1.45.35.24.7.46,1,.69l.92.68c.59.42,1.08.85,1.53,1.21l.63.5.5.45.7.62.19.16Z" style="fill:#e0e0e0"></path><path d="M692.21,195.81l-.06-.06-.17-.17-.69-.64-.49-.45c-.19-.17-.4-.34-.62-.52-.45-.37-.94-.8-1.53-1.23l-.91-.68c-.32-.24-.67-.46-1-.71-.7-.49-1.48-1-2.3-1.46a46.38,46.38,0,0,0-5.6-2.77,48.09,48.09,0,0,0-5.94-1.94c-.94-.21-1.83-.43-2.67-.56-.42-.08-.83-.16-1.22-.21l-1.13-.15c-.72-.11-1.38-.14-2-.19l-.8-.06-.68,0-.94,0h-.24l.24,0,.94,0,.67,0c.25,0,.51,0,.8.07.57,0,1.23.09,2,.21l1.12.15c.39.06.8.15,1.22.22.84.14,1.72.36,2.66.58a44.12,44.12,0,0,1,11.5,4.69c.82.5,1.61,1,2.31,1.45.35.24.7.46,1,.69l.91.68c.59.42,1.09.85,1.54,1.21l.62.51.51.44.7.62.18.16Z" style="fill:#e0e0e0"></path><path d="M690.22,201.36l-.06-.06-.18-.17-.68-.63-.5-.46c-.18-.17-.39-.34-.61-.52-.45-.37-.94-.8-1.53-1.23l-.91-.68c-.32-.24-.67-.46-1-.7-.7-.5-1.49-1-2.31-1.47a46.22,46.22,0,0,0-5.59-2.77,47.67,47.67,0,0,0-6-1.94c-.93-.21-1.82-.43-2.67-.56-.42-.07-.82-.16-1.21-.21l-1.14-.15c-.71-.11-1.37-.14-2-.19l-.8-.06-.67,0-.94,0h-.24l.24,0,.93,0,.68,0c.24,0,.51,0,.8.07.57.06,1.23.1,1.94.21l1.13.16c.39.05.79.14,1.21.21.84.14,1.73.36,2.66.58a47.31,47.31,0,0,1,5.92,1.94,46.22,46.22,0,0,1,5.59,2.76c.82.49,1.6.95,2.3,1.44.35.24.7.46,1,.7l.92.67c.59.42,1.09.85,1.54,1.21l.62.51.5.45.7.61.19.16S690.21,201.36,690.22,201.36Z" style="fill:#e0e0e0"></path><path d="M624.43,184.84a23.27,23.27,0,0,1-4.71,6.23,11.51,11.51,0,0,0,5.42-1.76,9.68,9.68,0,0,1-.79,4,15.56,15.56,0,0,0,6.8-6.07Z" style="fill:#ebebeb"></path><path d="M618.88,183l.06,0,.18.07.68.24,2.52.87c2.13.73,5,1.77,8.27,3s6.13,2.3,8.22,3.13l2.47,1,.67.26.18.07.06,0-.06,0-.17-.08-.66-.3-2.46-1c-2.08-.85-5-2-8.2-3.16s-6.15-2.21-8.29-2.92c-1.06-.36-1.93-.64-2.53-.82l-.69-.22L619,183Z" style="fill:#ebebeb"></path><path d="M281,46.56a15.68,15.68,0,0,1,3.81-1.66l.79-3.78L292,41l.92,3.75a15.81,15.81,0,0,1,3.87,1.52L300,44.17l4.59,4.43-2,3.3a15.75,15.75,0,0,1,1.66,3.82l3.78.78.11,6.38-3.75.92a16,16,0,0,1-1.52,3.88L305,70.9l-4.43,4.59-3.3-2a15.37,15.37,0,0,1-3.82,1.66l-.78,3.78-6.38.11-.92-3.75a15.64,15.64,0,0,1-3.88-1.52l-3.22,2.11-4.59-4.43,2-3.3A15.3,15.3,0,0,1,274,64.34l-3.78-.79-.11-6.38,3.75-.92a15.42,15.42,0,0,1,1.52-3.87l-2.11-3.23,4.43-4.59,3.3,2Zm3.4,8.5a6.85,6.85,0,1,0,9.68-.17A6.84,6.84,0,0,0,284.39,55.06Z" style="fill:#f5f5f5"></path><path d="M524.72,138.56a25.2,25.2,0,0,1,6.2-2.7l1.28-6.15,10.39-.18,1.49,6.1a25,25,0,0,1,6.3,2.48l5.25-3.44,7.47,7.21-3.25,5.36a26.22,26.22,0,0,1,2.7,6.21l6.14,1.28.18,10.39-6.09,1.49a25.74,25.74,0,0,1-2.48,6.3l3.44,5.25-7.22,7.47-5.36-3.25a25.87,25.87,0,0,1-6.21,2.7l-1.28,6.14-10.38.18-1.5-6.09a26.05,26.05,0,0,1-6.3-2.48l-5.24,3.44-7.48-7.22,3.26-5.36a25.1,25.1,0,0,1-2.7-6.21l-6.15-1.28L507,155.82l6.1-1.5a25.26,25.26,0,0,1,2.48-6.3l-3.44-5.24,7.21-7.48,5.37,3.26Zm5.53,13.83a11.14,11.14,0,1,0,15.75-.28A11.14,11.14,0,0,0,530.25,152.39Z" style="fill:#ebebeb"></path><path d="M431.47,45.56a25.43,25.43,0,0,1,6.21-2.7L439,36.71l10.38-.18,1.5,6.1a25.26,25.26,0,0,1,6.3,2.48l5.25-3.44,7.47,7.21-3.26,5.36a25.43,25.43,0,0,1,2.7,6.21l6.15,1.28.18,10.39-6.1,1.49a25,25,0,0,1-2.48,6.3l3.44,5.25-7.21,7.47-5.36-3.25a25.79,25.79,0,0,1-6.21,2.69l-1.28,6.15L440,98.4l-1.49-6.09a25.74,25.74,0,0,1-6.3-2.48L427,93.27l-7.47-7.22,3.25-5.36a25.45,25.45,0,0,1-2.69-6.21l-6.15-1.28-.18-10.38,6.09-1.5a26.05,26.05,0,0,1,2.48-6.3l-3.44-5.25,7.22-7.47,5.36,3.26ZM437,59.39a11.14,11.14,0,1,0,15.75-.28A11.14,11.14,0,0,0,437,59.39Z" style="fill:#ebebeb"></path><path d="M148.66,232.17a25.87,25.87,0,0,1,6.21-2.7l1.27-6.14,10.39-.18,1.49,6.09a25.34,25.34,0,0,1,6.3,2.48l5.25-3.44L187,235.5l-3.25,5.36a25.48,25.48,0,0,1,2.7,6.21l6.14,1.28.18,10.38-6.09,1.5a25.65,25.65,0,0,1-2.48,6.3l3.44,5.24-7.21,7.48L175.1,276a25.1,25.1,0,0,1-6.21,2.7l-1.28,6.15-10.38.18-1.5-6.1a25.26,25.26,0,0,1-6.3-2.48l-5.24,3.44-7.47-7.21,3.25-5.36a25.43,25.43,0,0,1-2.7-6.21l-6.15-1.28-.18-10.39,6.1-1.49a25,25,0,0,1,2.48-6.3l-3.44-5.25,7.21-7.47,5.37,3.25ZM154.19,246a11.14,11.14,0,1,0,15.75-.28A11.14,11.14,0,0,0,154.19,246Z" style="fill:#ebebeb"></path><path d="M241.57,99.63a17.63,17.63,0,0,1,4.26-1.85l.88-4.21,7.11-.13,1,4.18a17.89,17.89,0,0,1,4.32,1.7L262.76,97l5.13,5-2.23,3.68a17.57,17.57,0,0,1,1.85,4.25l4.21.88.12,7.12-4.18,1a17.31,17.31,0,0,1-1.69,4.32l2.35,3.6-4.94,5.12-3.68-2.23a17.63,17.63,0,0,1-4.26,1.85l-.87,4.21-7.12.13-1-4.18a17.27,17.27,0,0,1-4.31-1.7l-3.6,2.36-5.12-5,2.23-3.67a17.25,17.25,0,0,1-1.85-4.26l-4.22-.88-.12-7.12,4.18-1a17.34,17.34,0,0,1,1.7-4.32l-2.36-3.6,4.94-5.12,3.68,2.23Zm3.8,9.48a7.64,7.64,0,1,0,10.8-.19A7.63,7.63,0,0,0,245.37,109.11Z" style="fill:#f5f5f5"></path><path d="M91.45,223.31a17.25,17.25,0,0,1,4.26-1.85l.87-4.22,7.12-.12,1,4.18A17.27,17.27,0,0,1,109,223l3.6-2.36,5.12,4.94-2.23,3.68a17.25,17.25,0,0,1,1.85,4.26l4.22.88.12,7.11-4.18,1a17.49,17.49,0,0,1-1.7,4.32l2.36,3.6-4.94,5.12-3.68-2.23a17.63,17.63,0,0,1-4.26,1.85l-.88,4.21-7.11.13-1-4.18a17.89,17.89,0,0,1-4.32-1.7L88.39,256l-5.13-4.94,2.23-3.68a17.47,17.47,0,0,1-1.85-4.26l-4.21-.87-.12-7.12,4.18-1a17.16,17.16,0,0,1,1.69-4.32l-2.35-3.6,4.94-5.12,3.68,2.23Zm3.79,9.48a7.64,7.64,0,1,0,10.8-.19A7.64,7.64,0,0,0,95.24,232.79Z" style="fill:#f5f5f5"></path><path d="M39.63,386.87a28.67,28.67,0,0,0-12.25-4.21c-2-.21-4.19-.15-5.79,1.06-.34.26-.68.64-.6,1.06a1.3,1.3,0,0,0,.57.72,17.47,17.47,0,0,0,18.07,1.37" style="fill:#e0e0e0"></path><path d="M39.31,386.53a61,61,0,0,1-7.91-7,20.1,20.1,0,0,1-5-9.18,3.7,3.7,0,0,1,.4-3.06c6.3,4.92,11.25,11.29,12.47,19.2" style="fill:#e0e0e0"></path><path d="M39.56,386.83a28.78,28.78,0,0,1,.15-10.39,14,14,0,0,1,5.53-8.57c1.09,2.55.62,5.48-.14,8.14a39.58,39.58,0,0,1-5.49,11.55" style="fill:#e0e0e0"></path><path d="M45.74,397.9a18.17,18.17,0,0,0-9.82,5,18.65,18.65,0,0,0-5.62,9.65c3.68-.23,6.81-2.83,9.07-5.74s3.83-6.1,6.32-8.82" style="fill:#e0e0e0"></path><path d="M47.09,399.67a24.21,24.21,0,0,1,2.79-22.91c2.14,7.6,1.36,16.19-2.79,22.91" style="fill:#e0e0e0"></path><path d="M55.25,409.4A17.52,17.52,0,0,0,38.5,419c-.2.41-.39.94-.11,1.31a1.22,1.22,0,0,0,1.11.33c3.3-.21,6.23-2.2,8.64-4.46s4.52-4.88,7.19-6.83" style="fill:#e0e0e0"></path><path d="M55,408.87a31.31,31.31,0,0,1-.31-17.43c.62-2.24,1.65-4.6,3.72-5.65a.73.73,0,0,1,.57-.1.7.7,0,0,1,.36.41,10.58,10.58,0,0,1,.88,5,31,31,0,0,1-.79,5.06c-.65,3.1-1,6.42-2.69,9.09a17.42,17.42,0,0,0-1.08,2c-.32.68-.33.92-.62,1.46" style="fill:#e0e0e0"></path><path d="M76.61,412.09a22.46,22.46,0,0,1,3.94-18.47c.28-.37.66-.77,1.12-.72.71.06.89,1,.86,1.71a33.41,33.41,0,0,1-5.92,17.48" style="fill:#e0e0e0"></path><path d="M78.56,413.42a26.85,26.85,0,0,0,22-4.48,17.87,17.87,0,0,0-11.94-1.47c-4,.91-7.63,2.7-10.11,5.95" style="fill:#e0e0e0"></path><path d="M80.21,409.37a25.47,25.47,0,0,1,20-11.58c-.91,3.22-3.56,5.73-6.55,7.24a36.45,36.45,0,0,1-9.6,2.81c-1.28.25-3,.52-3.86,1.53" style="fill:#e0e0e0"></path><path d="M77,389.68A57.21,57.21,0,0,0,79.58,378a19.52,19.52,0,0,0-2.33-11.59,25.52,25.52,0,0,0-.34,23.71" style="fill:#e0e0e0"></path><path d="M90.06,383.09c4.53-8.23,13.77-14.8,23.12-15.73-3.61,9-13.44,15.92-23.12,15.73" style="fill:#e0e0e0"></path><path d="M87.21,384.7c6.76,1,12.51,5.35,18.82,8a8.45,8.45,0,0,0,4.26.82,3.33,3.33,0,0,0,2.08-5.9,9.27,9.27,0,0,0-3.09-1.87c-6.87-2.86-14.25-2.93-21.49-1.2" style="fill:#e0e0e0"></path><path d="M83.3,389.44c1.53.44,2.06,1.23,3.27,2.26A35.09,35.09,0,0,0,100.84,399c.54.14,1.26.19,1.53-.3s-.06-1-.37-1.34a19.62,19.62,0,0,0-8.62-5.84c-3.29-1.23-6.14-2.71-10.08-2.39" style="fill:#e0e0e0"></path><path d="M78.89,360.83a27,27,0,0,0,20.71,7.05,1.46,1.46,0,0,0,.94-.34c.52-.57-.1-1.44-.71-1.92-6.09-4.74-13.46-6.71-20.94-4.79" style="fill:#e0e0e0"></path><path d="M84.12,358.92A28.88,28.88,0,0,1,110,354.65a20.47,20.47,0,0,1-12.31,5.41,39.08,39.08,0,0,1-13.53-1.14" style="fill:#e0e0e0"></path><path d="M82,345.77c-.59-6.07-.21-10.87-.63-17,0-.48-.14-1.07-.59-1.25-.64-.24-1.17.54-1.37,1.19A19.43,19.43,0,0,0,82,345.64" style="fill:#e0e0e0"></path><path d="M81.61,346.44a35.49,35.49,0,0,0,10.06-9.78c2-2.72,3.67-6,3.22-9.32A9.68,9.68,0,0,0,87.62,331a20.36,20.36,0,0,0-3.7,7.45c-.8,2.67-1.37,5.42-2.31,8" style="fill:#e0e0e0"></path><path d="M91.5,343.7a81.45,81.45,0,0,0,24.77-14.61c-3-1.19-6.35-.48-9.31.72a29.27,29.27,0,0,0-15.59,13.82" style="fill:#e0e0e0"></path><path d="M84.39,349.77a50.26,50.26,0,0,0,13.75.06c4.46-.74,8.68-2.51,12.84-4.26a1.57,1.57,0,0,0,.88-.66,1,1,0,0,0-.32-1.1,2.57,2.57,0,0,0-1.09-.52,23.87,23.87,0,0,0-13.88.83,64.43,64.43,0,0,0-12.18,5.65" style="fill:#e0e0e0"></path><path d="M58.28,361a24.32,24.32,0,0,1-.22-20.14c1.89,2.89,2.12,6.58,1.78,10s-1.4,7-1.46,10.43" style="fill:#e0e0e0"></path><path d="M45.82,354.75A28.07,28.07,0,0,0,25,363.64a19.53,19.53,0,0,0,11.42-2.11,58.19,58.19,0,0,0,9.8-6.56" style="fill:#e0e0e0"></path><path d="M37.44,352c-3.81-.31-7.48-.78-11.14.34a13.4,13.4,0,0,0-8.5,7.2,20.06,20.06,0,0,0,10.45-2A59.82,59.82,0,0,0,37.44,352" style="fill:#e0e0e0"></path><path d="M49.84,352.08c-3.43-2.25-7-4.53-10.94-5.46s-8.61-.25-11.4,2.76c3.23,1.9,7.15,2.12,10.9,2.12s8.34-.05,11.87,1.2" style="fill:#e0e0e0"></path><path d="M49.86,352.26c-5.86-5.75-8.08-16.09-5.72-24a36.47,36.47,0,0,1,5.72,24" style="fill:#e0e0e0"></path><path d="M66,336c1.1-2.57,1.88-5.27,2.87-7.89a22.76,22.76,0,0,1,4.1-7.26,10.76,10.76,0,0,1,7.26-3.76A29.24,29.24,0,0,1,66.12,336" style="fill:#e0e0e0"></path><path d="M63.06,339.35c-1.83-2.51-3.94-5.93-6.42-7.81s-5.71-3-8.74-2.29a20.34,20.34,0,0,0,15.16,10.1" style="fill:#e0e0e0"></path><path d="M63.64,336.17a44.35,44.35,0,0,1-2.89-9.37,14.62,14.62,0,0,1,1.47-9.52c3.22,6.08,4.25,12.61,1.59,19" style="fill:#e0e0e0"></path><path d="M66,317.28c1.82-6,7.34-10.46,13.3-12.5a4.94,4.94,0,0,1,2.33-.35,2,2,0,0,1,1.72,1.43c.22,1-.63,1.95-1.43,2.63A45.16,45.16,0,0,1,66,317.28" style="fill:#e0e0e0"></path><path d="M66.07,312.35c.23-3.88.48-7.83,1.74-11.51s3.7-7.14,7.25-8.75c.6,3.93-1.13,7.83-3.22,11.21s-4.61,6.57-5.86,10.34" style="fill:#e0e0e0"></path><path d="M66,315c-1.51-4.39-1.66-10-4.3-13.8-1.83-2.68-4.78-4.5-6.36-7.33a11.12,11.12,0,0,0,.37,8.32,24.17,24.17,0,0,0,4.86,7c2,2.08,3.62,3.64,5.43,5.84" style="fill:#e0e0e0"></path><path d="M66,444.41c-.12,0-.22-29.31-.23-65.46s.08-65.45.2-65.45.22,29.3.22,65.45S66.12,444.41,66,444.41Z" style="fill:#e0e0e0"></path><path d="M91.62,356.62a6.5,6.5,0,0,1-1.1.41l-3,1c-2.55.88-6.07,2.14-9.88,3.7s-7.33,2.93-9.36,4.69a6.92,6.92,0,0,0-1.88,2.49c-.29.69-.34,1.11-.38,1.1s0-.11,0-.31a3.79,3.79,0,0,1,.22-.85A6.52,6.52,0,0,1,68,366.22a16.54,16.54,0,0,1,4.06-2.53c1.63-.76,3.43-1.55,5.34-2.33,3.82-1.57,7.36-2.79,10-3.59,1.29-.4,2.35-.7,3.08-.9A5.76,5.76,0,0,1,91.62,356.62Z" style="fill:#e0e0e0"></path><path d="M100,336a1.67,1.67,0,0,1-.31.33l-.94.88-3.51,3.19L83.57,350.8c-4.56,4.06-8.51,7.94-11.24,10.86-1.37,1.46-2.44,2.67-3.18,3.52l-.85,1a2.16,2.16,0,0,1-.31.32s.07-.14.25-.38.43-.59.79-1c.69-.88,1.74-2.12,3.08-3.61a146.55,146.55,0,0,1,11.18-11c4.57-4.05,8.74-7.69,11.76-10.32l3.6-3.08,1-.83A2,2,0,0,1,100,336Z" style="fill:#e0e0e0"></path><path d="M78.64,354.93c-.12-.05.84-2.25,1.79-5s1.41-5.13,1.53-5.11A17.21,17.21,0,0,1,80.83,350a34.67,34.67,0,0,1-1.42,3.52A5.47,5.47,0,0,1,78.64,354.93Z" style="fill:#e0e0e0"></path><path d="M66,372.67a5.09,5.09,0,0,1-.7-.82l-1.8-2.3c-1.51-2-3.6-4.66-6-7.61s-4.5-5.6-6.06-7.52l-1.84-2.28a5,5,0,0,1-.63-.87,5.23,5.23,0,0,1,.76.76c.47.51,1.13,1.26,1.94,2.2,1.62,1.87,3.82,4.49,6.16,7.45s4.41,5.68,5.86,7.69c.73,1,1.3,1.81,1.69,2.39A4.63,4.63,0,0,1,66,372.67Z" style="fill:#e0e0e0"></path><path d="M60.42,365.46a10.19,10.19,0,0,1-2.35-4.4,12.66,12.66,0,0,1-.54-4.44h.19c-.08.34-.15.52-.18.52s0-.2,0-.55l.19,0a20.53,20.53,0,0,0,.75,4.32A32.54,32.54,0,0,0,60.42,365.46Z" style="fill:#e0e0e0"></path><path d="M53.17,356.34a7.81,7.81,0,0,0-1.64-.95A10.83,10.83,0,0,0,47,355a27.3,27.3,0,0,0-4.6.74,14.48,14.48,0,0,1-1.89.45,6.49,6.49,0,0,1,1.81-.74,21.54,21.54,0,0,1,4.64-.88,10,10,0,0,1,4.71.51A2.9,2.9,0,0,1,53.17,356.34Z" style="fill:#e0e0e0"></path><path d="M51.45,354.13c0,.07-1-.38-2.52-.91a25.83,25.83,0,0,0-6.27-1.3,26.48,26.48,0,0,0-6.41.33c-1.62.29-2.6.59-2.62.52a2.79,2.79,0,0,1,.66-.28,15.89,15.89,0,0,1,1.9-.53,22.23,22.23,0,0,1,6.5-.46A22.67,22.67,0,0,1,49,352.93a15.58,15.58,0,0,1,1.79.82A2.8,2.8,0,0,1,51.45,354.13Z" style="fill:#e0e0e0"></path><path d="M66,344.79a51,51,0,0,1-1.84-6.38,50.14,50.14,0,0,1-1.42-6.48,53.53,53.53,0,0,1,1.83,6.38A53.52,53.52,0,0,1,66,344.79Z" style="fill:#e0e0e0"></path><path d="M66.09,344.79a29.15,29.15,0,0,0-2-3.82,17.15,17.15,0,0,0-3-3.09,2.86,2.86,0,0,1,1.15.6,9.42,9.42,0,0,1,2.19,2.25A8.33,8.33,0,0,1,66.09,344.79Z" style="fill:#e0e0e0"></path><path d="M66,428.78c-.05,0-.14-.7-.47-1.95a27.65,27.65,0,0,0-2-5.07A70.56,70.56,0,0,0,53.2,407.12c-2.32-2.65-4.58-5.15-6.49-7.54a53.08,53.08,0,0,1-4.63-6.69,32.29,32.29,0,0,1-2.34-5c-.21-.61-.37-1.09-.46-1.42a3,3,0,0,1-.12-.5s.25.67.73,1.86a36.6,36.6,0,0,0,2.45,4.87A55.44,55.44,0,0,0,47,399.33c1.92,2.37,4.17,4.86,6.49,7.51a66.65,66.65,0,0,1,10.35,14.79,25.44,25.44,0,0,1,1.84,5.16,12.93,12.93,0,0,1,.26,1.47A2.54,2.54,0,0,1,66,428.78Z" style="fill:#e0e0e0"></path><path d="M89.15,402.64a10.58,10.58,0,0,1-1.21.68,27.07,27.07,0,0,0-3.15,2.08,36.39,36.39,0,0,0-4.13,3.77c-1.45,1.53-2.94,3.31-4.47,5.22-3,3.82-5.9,7.21-7.61,9.91-.86,1.34-1.49,2.47-1.91,3.26a9.62,9.62,0,0,1-.66,1.22s0-.12.11-.34.21-.55.41-.95a30.79,30.79,0,0,1,1.8-3.35,109.84,109.84,0,0,1,7.53-10c1.53-1.91,3-3.69,4.52-5.22a33.6,33.6,0,0,1,4.23-3.74,21.24,21.24,0,0,1,3.25-2c.4-.2.73-.33,1-.42A1.37,1.37,0,0,1,89.15,402.64Z" style="fill:#e0e0e0"></path><path d="M89.6,411.12a18.52,18.52,0,0,1-2.56.38A33.26,33.26,0,0,0,81,412.69a18.44,18.44,0,0,0-5.45,2.86c-1.25,1-1.84,1.77-1.9,1.72a2,2,0,0,1,.38-.59,9.69,9.69,0,0,1,1.34-1.36,16.33,16.33,0,0,1,5.5-3A27.33,27.33,0,0,1,87,411.2,14.6,14.6,0,0,1,89.6,411.12Z" style="fill:#e0e0e0"></path><path d="M74.36,416.34c-.14-.07,1-1.84,1.92-4.21s1-4.5,1.18-4.47a3.68,3.68,0,0,1,0,1.37,14.46,14.46,0,0,1-.75,3.24,15.53,15.53,0,0,1-1.48,3A4.08,4.08,0,0,1,74.36,416.34Z" style="fill:#e0e0e0"></path><path d="M96.64,379.88a2.07,2.07,0,0,1-.41.21l-1.2.55c-.53.23-1.17.52-1.89.9s-1.57.75-2.45,1.28l-1.4.8c-.48.28-1,.61-1.47.93-1,.62-2.07,1.39-3.17,2.18A59,59,0,0,0,78,392.54a59.76,59.76,0,0,0-5.58,6.81c-.75,1.13-1.49,2.19-2.08,3.24-.3.52-.61,1-.88,1.5s-.5,1-.74,1.43c-.5.9-.86,1.75-1.21,2.49s-.62,1.39-.82,1.92l-.51,1.22a2.63,2.63,0,0,1-.2.42,1.73,1.73,0,0,1,.12-.45c.11-.33.26-.74.43-1.25a20.88,20.88,0,0,1,.77-1.95c.33-.75.67-1.62,1.15-2.54.23-.46.47-.94.73-1.44s.56-1,.86-1.53c.58-1.07,1.31-2.14,2-3.28a57.72,57.72,0,0,1,5.61-6.88,56,56,0,0,1,6.68-5.83c1.11-.79,2.16-1.55,3.21-2.17.52-.31,1-.64,1.5-.91l1.42-.78c.89-.51,1.75-.88,2.49-1.24s1.39-.63,1.92-.83L96.2,380A1.59,1.59,0,0,1,96.64,379.88Z" style="fill:#e0e0e0"></path><path d="M78.33,392.15a2.92,2.92,0,0,1,1-1.5,6.33,6.33,0,0,1,4-1.56,11,11,0,0,1,4.27.84,5.91,5.91,0,0,1,1.62.78,9.27,9.27,0,0,1-1.71-.5,13.07,13.07,0,0,0-4.16-.7,6.67,6.67,0,0,0-3.88,1.37A11.3,11.3,0,0,0,78.33,392.15Z" style="fill:#e0e0e0"></path><path d="M75.59,395a15.16,15.16,0,0,0,1.15-3.75,15.65,15.65,0,0,0-.25-3.91A2.64,2.64,0,0,1,77,388.4a7.68,7.68,0,0,1,.2,2.87,7.76,7.76,0,0,1-.85,2.75C76,394.67,75.63,395,75.59,395Z" style="fill:#e0e0e0"></path><path d="M45.77,433c.63,11.2,4,22.59,9.19,34.11H77.54c4.95-11.4,8.09-22.78,8.65-34.11Z" style="fill:#e0e0e0"></path><path d="M82.53,451.11c0,.11-7.43.21-16.6.21s-16.6-.1-16.6-.21,7.43-.22,16.6-.22S82.53,451,82.53,451.11Z" style="fill:#fafafa"></path><path d="M82,455.16c0,.12-7,.21-15.57.21s-15.56-.09-15.56-.21,7-.21,15.56-.21S82,455.05,82,455.16Z" style="fill:#fafafa"></path><path d="M55.33,440.34a64.36,64.36,0,0,1,0,10.39,64.36,64.36,0,0,1,0-10.39Z" style="fill:#fafafa"></path><path d="M67.42,440.34a69.15,69.15,0,0,1,0,10.77,69.15,69.15,0,0,1,0-10.77Z" style="fill:#fafafa"></path><path d="M78.78,440.24a72,72,0,0,1,0,11,72,72,0,0,1,0-11Z" style="fill:#fafafa"></path><path d="M85.47,440.34c0,.11-8.72.21-19.47.21s-19.47-.1-19.47-.21,8.72-.22,19.47-.22S85.47,440.22,85.47,440.34Z" style="fill:#fafafa"></path><rect x="48.94" y="117.94" width="41.77" height="33.4" transform="matrix(0.95, -0.32, 0.32, 0.95, -39.05, 29.05)" style="fill:#f5f5f5"></rect><rect x="50.38" y="120.05" width="38.84" height="29.19" transform="translate(-39.06 29.04) rotate(-18.47)" style="fill:#ebebeb"></rect><polygon points="56 154.64 63.12 133.13 74.69 141.24 78.17 133.68 92.84 142.34 56 154.64" style="fill:#e0e0e0"></polygon><path d="M73.77,127.23a3.06,3.06,0,1,1-3.87-1.93A3.05,3.05,0,0,1,73.77,127.23Z" style="fill:#e0e0e0"></path><rect x="101.56" y="53.71" width="42.52" height="53.19" transform="translate(20.4 185.4) rotate(-78.92)" style="fill:#f5f5f5"></rect><path d="M153,64.55l-.25,0-.74-.14-2.84-.53-10.69-2.06-37.7-7.31.16-.11C98.52,66.78,95.73,81,92.79,96.09h0l-.13-.19,52.2,10.25-.16.11c2.49-12.56,4.55-23,6-30.26.73-3.64,1.3-6.49,1.69-8.45.2-1,.35-1.71.46-2.23s.16-.77.16-.77,0,.25-.13.75-.23,1.25-.42,2.21c-.37,1.95-.92,4.8-1.61,8.44-1.42,7.31-3.44,17.75-5.88,30.36l0,.13-.13,0L92.6,96.22l-.15,0,0-.15h0c3-15.06,5.75-29.3,8.19-41.72l0-.14.14,0,37.77,7.47,10.65,2.12,2.8.57.72.15Z" style="fill:#e0e0e0"></path><rect x="104.2" y="55.57" width="37.17" height="49.45" transform="translate(20.38 185.36) rotate(-78.92)" style="fill:#ebebeb"></rect><polygon points="94.95 93.78 116.34 74.43 124.06 90.67 132.67 84.48 143.48 103.29 94.95 93.78" style="fill:#e0e0e0"></polygon><path d="M131.84,74.58A3.89,3.89,0,1,1,128.77,70,3.91,3.91,0,0,1,131.84,74.58Z" style="fill:#e0e0e0"></path></g><g id="freepik--Floor--inject-118"><path d="M727.35,466.84c0,.15-157.77.26-352.33.26S22.65,467,22.65,466.84s157.73-.26,352.37-.26S727.35,466.7,727.35,466.84Z" style="fill:#263238"></path></g><g id="freepik--Books--inject-118"><rect x="265.53" y="86.9" width="198.28" height="66.38" style="fill:#263238"></rect><path d="M358.4,121.68S180.15,96.77,175.89,96,370.33,55.56,370.33,55.56L564.88,99.19Z" style="fill:#263238"></path><path d="M463.82,108.9l-.47-.25c-.31-.16-.76-.42-1.37-.73-1.2-.63-3-1.55-5.35-2.61a167.18,167.18,0,0,0-20.54-7.57,240.44,240.44,0,0,0-31.69-7.09,303.85,303.85,0,0,0-39.6-3.52,236.2,236.2,0,0,0-39.66,2.42,224.76,224.76,0,0,0-31.71,7,191.86,191.86,0,0,0-20.6,7.41l-3.15,1.39-2.28,1.08-1.39.68c-.31.16-.48.23-.48.23L266,107l1.37-.73,2.26-1.12,3.13-1.44a179.67,179.67,0,0,1,20.58-7.57,220.62,220.62,0,0,1,31.74-7.11,233.81,233.81,0,0,1,39.74-2.46,301.08,301.08,0,0,1,39.67,3.56,234.31,234.31,0,0,1,31.71,7.22,157.69,157.69,0,0,1,20.52,7.74c2.36,1.08,4.13,2,5.32,2.69.6.33,1,.61,1.35.78Z" style="fill:#455a64"></path><path d="M486.28,91.91c-.78-5.17-1.41-8.48-3.5-11.73a8.59,8.59,0,0,0-11.87-2.06l5,1.19c3.82,2.08,4.81,7,5.17,11.39a131.62,131.62,0,0,1-.8,28.54c1.69.16,4.12-.33,5.8-.17C487,110,487.66,101.09,486.28,91.91Z" style="fill:#407BFF"></path><circle cx="483.62" cy="117.13" r="6.02" style="fill:#407BFF"></circle><path d="M496.6,144.61c-.11-4.9-.23-9.86-1.5-14.6s-3.84-9.31-7.92-12l-5.76.2c-3.38.78-5.67,4.06-6.52,7.42s-.58,6.88-.68,10.35-.67,7.12-2.87,9.79c1.91.51,3.66,1.49,5.53,2.13a7.31,7.31,0,0,0,5.77-.07c2.14-1.16,3-3.74,3.71-6.08a12.15,12.15,0,0,1,.57,6.88c1.6-.2,3.2.34,4.81.52s3.5-.13,4.35-1.51A5.45,5.45,0,0,0,496.6,144.61Z" style="fill:#407BFF"></path><rect x="222.94" y="152.6" width="294.82" height="26.79" style="fill:#f5f5f5"></rect><rect x="435.49" y="152.6" width="82.27" height="26.79" style="opacity:0.30000000000000004"></rect><path d="M517.76,157.26c0,.15-66,.26-147.4.26s-147.42-.11-147.42-.26,66-.26,147.42-.26S517.76,157.12,517.76,157.26Z" style="fill:#263238"></path><path d="M517.76,161.82c0,.15-66,.26-147.4.26s-147.42-.11-147.42-.26,66-.26,147.42-.26S517.76,161.68,517.76,161.82Z" style="fill:#263238"></path><path d="M517.76,166.39c0,.14-66,.26-147.4.26s-147.42-.12-147.42-.26,66-.26,147.42-.26S517.76,166.24,517.76,166.39Z" style="fill:#263238"></path><path d="M517.76,171c0,.14-66,.26-147.4.26s-147.42-.12-147.42-.26,66-.26,147.42-.26S517.76,170.8,517.76,171Z" style="fill:#263238"></path><path d="M517.76,175.41c0,.14-66,.26-147.4.26s-147.42-.12-147.42-.26,66-.26,147.42-.26S517.76,175.26,517.76,175.41Z" style="fill:#263238"></path><rect x="173.37" y="221.86" width="382.2" height="47.73" style="fill:#455a64"></rect><path d="M471.18,260.18a3.39,3.39,0,0,1,0-.55c0-.41,0-.91,0-1.53,0-1.39-.05-3.29-.08-5.65,0-4.87-.1-11.63-.16-19.57l.32.32-18.1,0c-.08.07.66-.66.35-.34h0v3.81c0,1.26,0,2.5,0,3.73,0,2.46,0,4.84,0,7.14,0,4.59,0,8.84-.05,12.61l-.28-.28,13.1.15,3.67.07a12.36,12.36,0,0,1,1.33.06,8.87,8.87,0,0,1-1.22.06l-3.6.07-13.28.14h-.27v-.28c0-3.77,0-8-.06-12.61,0-2.3,0-4.68,0-7.14V236.7c0-.63,0-1.26,0-1.9v-1.91h0c-.3.3.43-.43.35-.36l18.1,0h.32v.32c-.07,8-.12,14.86-.16,19.78,0,2.33-.06,4.21-.09,5.58,0,.59,0,1.07,0,1.46A3.05,3.05,0,0,1,471.18,260.18Z" style="fill:#263238"></path><rect x="496.61" y="229.33" width="58.95" height="32.28" style="fill:#fff"></rect><rect x="488.85" y="221.86" width="66.71" height="47.73" style="opacity:0.30000000000000004"></rect><path d="M488.56,269.31c-.19,0-.35-10.54-.35-23.53s.16-23.53.35-23.53.35,10.53.35,23.53S488.75,269.31,488.56,269.31Z" style="fill:#263238"></path><path d="M556,237c0,.19-13.4.34-29.92.34s-29.92-.15-29.92-.34,13.39-.35,29.92-.35S556,236.78,556,237Z" style="fill:#263238"></path><path d="M556,245.47c0,.19-13.4.34-29.92.34s-29.92-.15-29.92-.34,13.39-.35,29.92-.35S556,245.27,556,245.47Z" style="fill:#263238"></path><path d="M556,254.08c0,.19-13.4.35-29.92.35s-29.92-.16-29.92-.35,13.39-.34,29.92-.34S556,253.89,556,254.08Z" style="fill:#263238"></path><rect x="177.58" y="269.97" width="382.2" height="23.55" style="fill:#ff9a6c"></rect><rect x="474.34" y="272.92" width="85.44" height="17.83" style="fill:#e0e0e0"></rect><rect x="469.51" y="269.97" width="90.27" height="23.55" style="opacity:0.30000000000000004"></rect><path d="M469.51,293.52c-.2,0-.34-5.07-.32-11.33s.19-11.34.38-11.34.33,5.08.31,11.34S469.7,293.52,469.51,293.52Z" style="fill:#263238"></path><rect x="205.06" y="279.05" width="230.18" height="5.63" style="fill:#e0e0e0"></rect><path d="M460.21,293.34c0,.19-63.34.34-141.45.34s-141.46-.15-141.46-.34,63.32-.35,141.46-.35S460.21,293.14,460.21,293.34Z" style="fill:#263238"></path><path d="M470.45,293.45c0,.19-63.34.34-141.45.34s-141.46-.15-141.46-.34,63.32-.35,141.46-.35S470.45,293.26,470.45,293.45Z" style="fill:#263238"></path><path d="M559.78,269.8c0,.19-83.34.34-186.11.34s-186.13-.15-186.13-.34,83.31-.35,186.13-.35S559.78,269.6,559.78,269.8Z" style="fill:#263238"></path><rect x="147.94" y="419.43" width="382.2" height="23.55" style="fill:#e0e0e0"></rect><rect x="444.69" y="422.38" width="85.44" height="17.83" style="fill:#e0e0e0"></rect><rect x="439.86" y="419.43" width="90.27" height="23.55" style="opacity:0.30000000000000004"></rect><path d="M439.86,443c-.19,0-.33-5.08-.31-11.33s.18-11.34.38-11.34.33,5.08.31,11.34S440.06,443,439.86,443Z" style="fill:#263238"></path><rect x="175.42" y="428.5" width="230.18" height="5.63" style="fill:#fff"></rect><path d="M430.57,442.79c0,.2-63.34.35-141.45.35s-141.46-.15-141.46-.35,63.32-.34,141.46-.34S430.57,442.6,430.57,442.79Z" style="fill:#263238"></path><path d="M440.81,442.9c0,.2-63.34.35-141.45.35s-141.47-.15-141.47-.35,63.33-.34,141.47-.34S440.81,442.71,440.81,442.9Z" style="fill:#263238"></path><path d="M530.13,419.25c0,.2-83.33.35-186.11.35s-186.13-.15-186.13-.35,83.32-.34,186.13-.34S530.13,419.06,530.13,419.25Z" style="fill:#263238"></path><rect x="109.96" y="443.08" width="541.24" height="23.55" style="fill:#455a64"></rect><rect x="535.58" y="446.03" width="115.62" height="17.83" style="fill:#e0e0e0"></rect><rect x="529.04" y="443.08" width="122.16" height="23.55" style="opacity:0.30000000000000004"></rect><path d="M529,466.63c-.26,0-.45-5.08-.42-11.33s.25-11.34.51-11.34.45,5.08.42,11.34S529.3,466.63,529,466.63Z" style="fill:#263238"></path><rect x="171.19" y="452.15" width="311.49" height="5.63" style="fill:#e0e0e0"></rect><path d="M530.32,466.55c0,.2-85.71.35-191.41.35s-191.44-.15-191.44-.35,85.69-.34,191.44-.34S530.32,466.36,530.32,466.55Z" style="fill:#263238"></path><path d="M651.2,442.9c0,.2-112.77.35-251.85.35s-251.88-.15-251.88-.35,112.75-.34,251.88-.34S651.2,442.71,651.2,442.9Z" style="fill:#263238"></path><rect x="420.44" y="300.2" width="126.22" height="46.29" transform="translate(967.1 646.7) rotate(180)" style="fill:#ebebeb"></rect><rect x="144.33" y="292.25" width="402.33" height="9.7" transform="translate(691 594.2) rotate(180)" style="fill:#455a64"></rect><rect x="144.33" y="344.43" width="402.33" height="9.7" transform="translate(691 698.55) rotate(180)" style="fill:#455a64"></rect><polygon points="424.48 294.56 423.85 352.28 144.33 352.28 144.33 294.56 424.48 294.56" style="fill:#455a64"></polygon><ellipse cx="354.99" cy="325.98" rx="13.3" ry="14.36" style="fill:#263238"></ellipse><path d="M339.62,326c0-9.06,6.9-16.42,15.37-16.42s15.36,7.36,15.36,16.42S363.46,342.4,355,342.4,339.62,335,339.62,326Zm4.13,0c0,6.78,5,12.3,11.24,12.3s11.23-5.52,11.23-12.3-5-12.3-11.23-12.3S343.75,319.2,343.75,326Z" style="fill:#e0e0e0"></path><rect x="187.42" y="309.41" width="110.88" height="30.89" transform="translate(485.73 649.71) rotate(180)" style="fill:#fff"></rect><path d="M281,337.16c.6,0,1.08-5.51,1.08-12.31s-.48-12.3-1.08-12.3-1.07,5.51-1.07,12.3S280.44,337.16,281,337.16Z" style="fill:#e0e0e0"></path><path d="M266.37,337.16c.6,0,1.08-5.51,1.08-12.31s-.48-12.3-1.08-12.3-1.07,5.51-1.07,12.3S265.78,337.16,266.37,337.16Z" style="fill:#e0e0e0"></path><path d="M251.71,337.16c.59,0,1.08-5.51,1.08-12.31s-.49-12.3-1.08-12.3-1.07,5.51-1.07,12.3S251.12,337.16,251.71,337.16Z" style="fill:#e0e0e0"></path><path d="M237.05,337.16c.59,0,1.07-5.51,1.07-12.31s-.48-12.3-1.07-12.3-1.08,5.51-1.08,12.3S236.46,337.16,237.05,337.16Z" style="fill:#e0e0e0"></path><path d="M222.39,337.16c.59,0,1.07-5.51,1.07-12.31s-.48-12.3-1.07-12.3-1.08,5.51-1.08,12.3S221.79,337.16,222.39,337.16Z" style="fill:#e0e0e0"></path><path d="M207.73,337.16c.59,0,1.07-5.51,1.07-12.31s-.48-12.3-1.07-12.3-1.08,5.51-1.08,12.3S207.13,337.16,207.73,337.16Z" style="fill:#e0e0e0"></path><path d="M423.8,345.38c-.15,0-.26-9.72-.26-21.71s.11-21.72.26-21.72.26,9.72.26,21.72S423.94,345.38,423.8,345.38Z" style="fill:#263238"></path><path d="M544.29,309.26c0,.15-26.83.26-59.94.26s-59.94-.11-59.94-.26,26.83-.26,59.94-.26S544.29,309.12,544.29,309.26Z" style="fill:#263238"></path><path d="M544.29,316.28c0,.14-26.83.26-59.94.26s-59.94-.12-59.94-.26,26.83-.26,59.94-.26S544.29,316.13,544.29,316.28Z" style="fill:#263238"></path><path d="M544.29,323.29c0,.14-26.83.26-59.94.26s-59.94-.12-59.94-.26,26.83-.26,59.94-.26S544.29,323.15,544.29,323.29Z" style="fill:#263238"></path><path d="M544.29,330.3c0,.15-26.83.26-59.94.26s-59.94-.11-59.94-.26,26.83-.26,59.94-.26S544.29,330.16,544.29,330.3Z" style="fill:#263238"></path><path d="M544.29,337.31c0,.15-26.83.26-59.94.26s-59.94-.11-59.94-.26,26.83-.26,59.94-.26S544.29,337.17,544.29,337.31Z" style="fill:#263238"></path><rect x="416.41" y="292.09" width="130.25" height="62.03" style="opacity:0.30000000000000004"></rect><rect x="212.21" y="179.34" width="325.73" height="42.67" style="fill:#407BFF"></rect><rect x="465.98" y="185.36" width="71.95" height="30.3" style="fill:#f5f5f5"></rect><rect x="458.08" y="179.34" width="79.86" height="42.67" style="opacity:0.30000000000000004"></rect><path d="M436.17,212.65s0-.41,0-1.18,0-1.93,0-3.43c0-3,0-7.47-.07-13.24l.12.1-205.42.15h0l.28-.25v17.85l-.28-.25,145.86.11,43.62.07,11.81,0,3.08,0,1.06,0h-1l-3,0-11.76,0-43.55.07-146.06.11h-.27V194.56h.28l205.42.14h.11v.1c0,5.8,0,10.27-.07,13.3,0,1.49,0,2.63,0,3.4S436.17,212.65,436.17,212.65Z" style="fill:#263238"></path><path d="M458.36,221.73c-.16,0-.28-9.57-.28-21.36s.12-21.35.28-21.35.27,9.56.27,21.35S458.51,221.73,458.36,221.73Z" style="fill:#263238"></path><rect x="132.3" y="353.14" width="472.47" height="65.92" style="fill:#407BFF"></rect><rect x="132.3" y="361.38" width="464.76" height="49.19" style="fill:#f5f5f5"></rect><path d="M597.07,372.13s-.41,0-1.2,0l-3.53,0-13.56.07-49.85.11-164.48.1-164.51-.1-49.85-.11-13.56-.07-3.52,0c-.8,0-1.2,0-1.2,0l1.2,0,3.52,0,13.56-.06,49.85-.11,164.51-.1,164.48.1,49.85.11,13.56.06,3.53,0Z" style="fill:#263238"></path><path d="M597.07,385.28s-.41,0-1.2,0l-3.53,0-13.56.07-49.85.11-164.48.1-164.51-.1-49.85-.11-13.56-.07-3.52,0c-.8,0-1.2,0-1.2,0l1.2,0,3.52,0,13.56-.07,49.85-.11,164.51-.1,164.48.1,49.85.11,13.56.07,3.53,0Z" style="fill:#263238"></path><path d="M597.07,398.44l-1.2,0-3.53,0-13.56.06-49.85.11-164.48.1-164.51-.1-49.85-.11-13.56-.06-3.52,0-1.2,0s.4,0,1.2,0l3.52,0,13.56-.07,49.85-.11,164.51-.1,164.48.1,49.85.11,13.56.07,3.53,0C596.66,398.41,597.07,398.44,597.07,398.44Z" style="fill:#263238"></path><rect x="474.43" y="353.14" width="130.34" height="65.92" style="opacity:0.30000000000000004"></rect><path d="M555.43,238.33s.72.21,1.38,1.22a4.34,4.34,0,0,1-.06,4.66l-.11-.36a3.3,3.3,0,0,1,1.85,3.29,4.32,4.32,0,0,1-2.13,3.45,6.05,6.05,0,0,1-3.2.87,12,12,0,0,1-2.21-.18c-.51-.08-.79-.15-.78-.19s1.16.08,3,0a6,6,0,0,0,3-.92,3.9,3.9,0,0,0,1.87-3.06,2.88,2.88,0,0,0-1.5-2.82l-.29-.11.17-.25a4.17,4.17,0,0,0,.21-4.24A6.41,6.41,0,0,0,555.43,238.33Z" style="fill:#455a64"></path></g></svg>
